<svg width="43" height="34" viewBox="0 0 43 34" fill="none" xmlns="http://www.w3.org/2000/svg">
<path fill-rule="evenodd" clip-rule="evenodd" d="M30.4584 12.0417H32.2501C34.2209 12.0417 35.8334 13.3167 35.8334 14.875V29.0417C35.8334 30.6 34.2209 31.875 32.2501 31.875H10.7501C8.77925 31.875 7.16675 30.6 7.16675 29.0417V14.875C7.16675 13.3167 8.77925 12.0417 10.7501 12.0417H12.5417V9.20833C12.5417 5.29833 16.5551 2.125 21.5001 2.125C26.4451 2.125 30.4584 5.29833 30.4584 9.20833V12.0417ZM21.5001 4.95833C18.5259 4.95833 16.1251 6.85667 16.1251 9.20833V12.0417H26.8751V9.20833C26.8751 6.85667 24.4742 4.95833 21.5001 4.95833ZM32.2501 29.0417H10.7501V14.875H32.2501V29.0417ZM25.0834 21.9583C25.0834 23.5167 23.4709 24.7917 21.5001 24.7917C19.5292 24.7917 17.9167 23.5167 17.9167 21.9583C17.9167 20.4 19.5292 19.125 21.5001 19.125C23.4709 19.125 25.0834 20.4 25.0834 21.9583Z" fill="black" fill-opacity="0.54"/>
</svg>
