<svg width="1152" height="186" viewBox="0 0 1152 186" fill="none" xmlns="http://www.w3.org/2000/svg">
<g clip-path="url(#clip0)">
<path opacity="0.25" d="M1602 -7V62.6375C1523.62 96.0346 1373.23 127.341 1284 121.067C1168.61 112.989 1119.3 54.6492 1003.73 48.3459C882.63 41.7868 761.762 73.7397 645.88 101.39C532.277 128.469 419.068 138.819 302.464 121.067C243.178 112.041 187.91 94.2293 131.166 76.929C-20.7635 30.6093 -223.32 -28.4975 -366 71.9345V-7H1602Z" fill="#FC9E50"/>
<path opacity="0.5" d="M1840 -7V10.9717C1818.68 34.9682 1794.67 57.6346 1761.79 74.9016C1676.97 119.484 1569.4 119.177 1471.69 97.1019C1420.6 85.5641 1373.14 67.4673 1324.63 51.86C1257.52 30.2621 1185.67 -0.429688 1110.07 -4.6015C1050.6 -7.84118 993.793 6.10652 948.365 31.2738C896.262 60.1354 846.16 101.751 778.412 114.255C712.09 126.521 644.998 106.65 583.038 86.6554C521.079 66.6602 459.776 42.3228 391.29 37.719C293.332 31.0692 205.51 63.7275 114.294 81.8697C64.7656 91.7138 17.5337 88.8834 -28.5339 73.3442C-65.3191 60.9652 -107.254 42.732 -128 17.3715V-7H1840Z" fill="#FC9E50"/>
<path d="M1602 -7V3.92977C1356.11 107.539 1086.89 131.457 821.639 75.643C751.119 60.8111 683.502 36.5832 612.358 24.2751C515.598 7.52125 427.051 48.274 340 93.2356C243.355 143.148 152.928 150.415 46 140.243C-95.9092 126.653 -240.802 78.9821 -366 3.07557V-7H1602Z" fill="#FC9E50"/>
</g>
<defs>
<clipPath id="clip0">
<rect width="1968" height="193" fill="white" transform="matrix(-1 0 0 1 1602 -7)"/>
</clipPath>
</defs>
</svg>
